<?xml version="1.0" encoding="utf-8"?>
<!-- Generator: Adobe Illustrator 16.0.4, SVG Export Plug-In . SVG Version: 6.00 Build 0)  -->
<!DOCTYPE svg PUBLIC "-//W3C//DTD SVG 1.1//EN" "http://www.w3.org/Graphics/SVG/1.1/DTD/svg11.dtd">
<svg version="1.1" xmlns="http://www.w3.org/2000/svg" xmlns:xlink="http://www.w3.org/1999/xlink" x="0px" y="0px" width="1200px"
	 height="400px" viewBox="0 0 1200 400" enable-background="new 0 0 1200 400" xml:space="preserve">
<g id="Layer_1">
</g>
<g id="Layer_2">
	<g>
		<polygon fill-rule="evenodd" clip-rule="evenodd" fill="#2397A9" points="1099.116,181.289 1098.974,125.888 1097.679,120.54 
			1092.914,123.53 1090.245,125.556 1085.952,129.626 1053.076,155.515 1034.099,168.912 1024.826,172.112 1022.707,163.472 
			1022.524,121.936 1020.67,113.696 1014.057,117.881 1011.896,120.543 1007.588,123.365 1005.17,125.697 983.886,141.209 
			956.954,159.242 946.22,153.308 946.178,125.762 944.651,117.993 937.209,121.474 882.804,158.479 870.233,163.905 
			867.627,149.68 867.491,134.652 866.335,127.479 859.76,129.954 815.999,157.779 793.608,168.161 791.127,145.835 
			791.125,145.716 784.515,141.878 735.491,172.167 715.969,162.245 707.523,158.567 678.521,176.753 651.248,191.697 
			627.086,177.395 575.832,178.294 565.872,174.312 560.586,171.919 538.688,137.588 538.146,137.75 532.727,132.203 
			500.682,114.111 501.066,113.25 500.497,113.956 488.853,104.57 483.078,99.418 482.925,89.774 474.292,74.792 414.84,37.364 
			404.114,25.208 404.554,8.625 420.984,8.625 475.106,43.743 487.019,62.94 494.555,72.896 553.611,109.453 570.982,138.987 
			624.02,141.812 631.035,139.183 638.912,144.157 650.685,149.922 696.867,121.339 718.417,131.648 719.094,132.554 
			731.698,126.121 781.707,94.986 795.025,102.738 796.362,112.149 804.92,108.91 871.532,65.877 871.58,92.796 872.514,97.831 
			878.172,95.812 950.639,43.766 950.639,83.887 1026.649,24.807 1026.706,69.751 1027.682,74.632 1032.003,72.837 1103.051,9.053 
			1103.104,67.375 1104.036,72.125 1109.113,69.749 1169.668,8.625 1182.004,8.625 1181.759,135.459 1177.964,135.216 
			1169.157,141.274 1112.914,187.422 1101.692,193.366 		"/>
		<polygon fill-rule="evenodd" clip-rule="evenodd" fill="#2397A9" points="406.502,10.625 420.393,10.625 473.643,45.178 
			485.369,64.074 493.186,74.4 552.138,110.893 569.803,140.927 624.33,143.832 630.807,141.404 637.936,145.905 650.798,152.204 
			696.99,123.615 717.109,133.24 718.5,135.103 732.683,127.863 781.742,97.321 793.182,103.979 794.733,114.904 805.827,110.705 
			869.539,69.546 869.58,92.982 870.975,100.504 879.109,97.601 948.639,47.665 948.639,87.974 1024.654,28.891 1024.706,69.95 
			1026.198,77.414 1033.085,74.554 1101.055,13.532 1101.104,67.57 1102.566,75.021 1110.283,71.409 1170.502,10.625 1180,10.625 
			1179.763,133.328 1177.4,133.176 1167.954,139.674 1111.801,185.749 1103.096,190.359 1101.115,181.076 1100.973,125.647 
			1098.97,117.368 1091.775,121.883 1088.949,124.029 1084.643,128.112 1051.923,153.881 1033.178,167.114 1026.246,169.506 
			1024.706,163.226 1024.523,121.709 1021.998,110.488 1012.71,116.367 1010.539,119.041 1006.334,121.795 1003.881,124.162 
			982.708,139.593 956.854,156.902 948.218,152.127 948.178,125.566 946.12,115.098 936.217,119.73 881.836,156.719 
			871.748,161.073 869.625,149.489 869.489,134.483 867.92,124.746 858.861,128.155 815.038,156.021 795.289,165.177 
			793.125,145.71 793.109,144.555 784.482,139.547 735.396,169.875 716.822,160.436 707.354,156.312 677.508,175.027 
			651.286,189.396 627.617,175.385 576.2,176.287 566.615,172.455 561.953,170.343 539.561,135.238 538.731,135.487 
			533.958,130.601 501.665,112.369 501.752,112.398 490.184,103.077 485.063,98.51 484.917,89.225 475.777,73.364 416.149,35.825 
			406.134,24.475 406.502,10.625 		"/>
		<polygon fill-rule="evenodd" clip-rule="evenodd" fill="#442277" points="239.23,389.994 181.759,353.519 172.873,336.615 
			173.127,263.688 165.15,248.306 105.081,205.039 96.478,187.743 96.751,127.5 88.069,107.363 20.19,46.246 20.03,8.625 
			100.591,8.625 100.464,67.992 109.695,86.908 169.736,135.666 177.061,151.406 176.771,198.782 187.478,220.187 243.749,256.386 
			255.794,276.569 255.608,339.107 263.302,354.719 321.002,389.994 		"/>
		<polygon fill-rule="evenodd" clip-rule="evenodd" fill="#442277" points="313.896,387.994 239.811,387.994 183.281,352.116 
			174.875,336.125 175.129,263.204 166.706,246.962 106.651,203.705 98.479,187.277 98.753,127.092 89.733,106.17 22.187,45.352 
			22.039,10.625 98.586,10.625 98.463,68.452 108.091,88.182 168.117,136.927 175.058,151.842 174.768,199.249 185.934,221.572 
			242.272,257.814 253.792,277.118 253.607,339.57 261.764,356.123 313.896,387.994 		"/>
		<polygon fill-rule="evenodd" clip-rule="evenodd" fill="#660066" points="313.333,389.994 260.227,357.527 251.605,340.033 
			251.791,277.667 240.795,259.243 184.421,222.977 171.856,199.819 171.779,152.56 166.432,138.135 106.488,89.456 96.478,68.942 
			94.64,8.625 122.485,8.625 176.997,55.96 177.312,102.812 186.208,120.754 198.753,130.038 253.079,167.079 255.776,181.222 
			256.028,225.635 261.106,239.699 332.009,282.849 332.427,348.213 339.866,363.001 383.43,389.994 		"/>
		<polygon fill-rule="evenodd" clip-rule="evenodd" fill="#660066" points="313.896,387.994 261.764,356.123 253.607,339.57 
			253.792,277.118 242.272,257.814 185.934,221.572 173.855,199.31 173.778,152.199 168.117,136.927 108.091,88.182 98.463,68.452 
			96.702,10.625 121.738,10.625 175.002,56.878 175.314,103.287 184.63,122.075 197.564,131.646 251.269,168.265 253.777,181.417 
			254.03,225.99 259.465,241.041 330.016,283.978 330.43,348.693 338.333,364.404 376.405,387.994 313.896,387.994 		"/>
		<polygon fill-rule="evenodd" clip-rule="evenodd" fill="#2397A9" points="155.861,389.994 109.828,359.403 96.298,335.159 
			96.791,250.847 85.36,231.947 40.061,197.241 20.187,180.563 20.187,40.86 91.396,104.977 100.755,126.684 100.481,186.812 
			108.222,202.372 168.262,245.618 177.13,262.72 176.877,335.635 184.803,350.714 246.695,389.994 		"/>
		<polygon fill-rule="evenodd" clip-rule="evenodd" fill="#2397A9" points="22.187,45.352 89.733,106.17 98.753,127.092 
			98.479,187.277 106.651,203.705 166.706,246.962 175.129,263.204 174.875,336.125 183.281,352.116 239.811,387.994 
			156.465,387.994 111.338,358.006 98.301,334.645 98.794,250.295 86.876,230.589 41.277,195.654 22.187,179.631 22.187,45.352 		
			"/>
		<polygon fill-rule="evenodd" clip-rule="evenodd" fill="#FE7610" points="488.416,389.994 483.197,374.671 483.255,332.104 
			476.601,319.704 416.766,282.812 372.353,202.226 337.897,181.229 299.266,110.263 259.432,82.682 252.065,68.89 222.722,8.625 
			254.935,8.625 262.173,23.028 322.268,68.063 331.831,87.677 350.81,123.153 399.684,153.814 436.874,218.583 477.488,242.927 
			519.075,316.974 554.79,335.809 563.734,350.435 563.611,389.994 		"/>
		<polygon fill-rule="evenodd" clip-rule="evenodd" fill="#FE7610" points="489.847,387.994 485.198,374.341 485.255,331.604 
			478.109,318.284 418.263,281.387 373.848,200.795 339.396,179.8 300.795,108.89 260.968,81.313 253.83,67.947 225.92,10.625 
			253.702,10.625 260.598,24.346 320.682,69.374 330.033,88.553 349.297,124.564 398.198,155.243 435.398,220.03 476.004,244.369 
			517.62,318.468 553.371,337.321 561.732,350.995 561.617,387.994 489.847,387.994 		"/>
		<polygon fill-rule="evenodd" clip-rule="evenodd" fill="#FE7610" points="567.497,53.936 563.296,50.85 522.851,16.05 
			514.85,8.625 541.305,8.625 558.459,18.272 558.401,18.039 562.552,20.573 563.244,20.963 566.12,32.607 617.793,43.065 
			640.9,39.231 645.698,37.555 690.678,8.625 746.563,8.625 725.804,22.281 715.959,19.81 706.377,20.517 652.21,53.718 
			636.21,54.391 626.867,56.852 		"/>
		<polygon fill-rule="evenodd" clip-rule="evenodd" fill="#FE7610" points="739.884,10.625 725.438,20.127 716.133,17.792 
			705.746,18.558 651.607,51.741 635.91,52.401 626.656,54.839 568.196,51.967 564.542,49.284 524.155,14.534 519.944,10.625 
			540.781,10.625 561.553,22.307 561.509,22.28 564.481,34.316 617.757,45.099 641.397,41.176 646.581,39.365 691.266,10.625 
			739.884,10.625 		"/>
		<polygon fill-rule="evenodd" clip-rule="evenodd" fill="#660066" points="636.664,118.51 629.965,116.753 616.831,120.018 
			580.162,119.51 559.727,91.367 490.502,48.311 486.138,44.514 447.736,8.625 481.47,8.625 486.548,14.195 493.679,26.933 
			563.442,69.645 564.014,75.344 564.661,87.315 576.546,91.143 625.653,91.145 638.589,98.409 718.635,52.984 719.13,59.023 
			720.249,66.817 794.454,21.479 795.457,26.576 796.651,38.777 836.448,8.625 930.868,8.625 880.813,48.041 870.288,51.936 
			867.552,41.146 867.493,37.66 865.972,30.831 860.324,33.309 807.226,69.493 792.486,63.254 783.864,60.258 726.85,95.284 
			715.804,91.049 708.435,88.523 650.538,121.327 		"/>
		<polygon fill-rule="evenodd" clip-rule="evenodd" fill="#660066" points="837.12,10.625 795.009,42.53 793.476,26.867 
			793.046,24.683 718.701,70.106 717.142,59.248 716.897,56.27 638.594,100.705 625.13,93.145 576.232,93.143 562.738,88.797 
			562.024,75.544 561.551,70.832 492.189,28.366 484.915,15.373 480.587,10.625 452.805,10.625 487.451,43.005 491.694,46.697 
			561.115,89.875 581.192,117.524 616.6,118.015 629.978,114.689 637.117,116.561 650.203,119.218 708.231,86.34 716.52,89.182 
			726.644,93.063 783.625,58.058 793.205,61.386 807.001,67.226 859.352,31.552 867.396,28.022 869.489,37.423 869.548,40.88 
			871.68,49.288 879.824,46.274 925.096,10.625 		"/>
		<polygon fill-rule="evenodd" clip-rule="evenodd" fill="#442277" points="636.959,147.654 630.579,143.625 624.641,145.852 
			568.624,142.867 550.665,112.333 491.816,75.904 483.718,65.208 472.179,46.612 413.636,8.625 453.594,8.625 488.816,41.544 
			492.886,45.083 562.504,88.384 582.221,115.538 616.368,116.011 629.991,112.625 637.57,114.612 649.868,117.109 708.028,84.156 
			717.168,87.29 726.438,90.843 783.386,55.858 793.924,59.519 806.776,64.959 858.378,29.795 868.819,25.214 871.485,37.186 
			871.544,40.613 873.071,46.641 878.834,44.508 924.402,8.625 1175.299,8.625 1111.453,73.069 1101.097,77.918 1099.104,67.765 
			1099.059,18.012 1034.167,76.27 1024.715,80.195 1022.706,70.149 1022.659,32.974 946.639,92.062 946.639,51.564 880.047,99.39 
			869.436,103.176 867.58,93.167 867.546,73.215 806.733,112.5 793.104,117.659 791.338,105.22 781.777,99.655 733.668,129.606 
			717.906,137.651 715.802,134.831 697.113,125.891 650.911,154.486 		"/>
		<polygon fill-rule="evenodd" clip-rule="evenodd" fill="#442277" points="925.096,10.625 879.824,46.274 871.68,49.288 
			869.548,40.88 869.489,37.423 867.396,28.022 859.352,31.552 807.001,67.226 793.205,61.386 783.625,58.058 726.644,93.063 
			716.52,89.182 708.231,86.34 650.203,119.218 637.117,116.561 629.978,114.689 616.6,118.015 581.192,117.524 561.115,89.875 
			491.694,46.697 487.451,43.005 452.805,10.625 420.393,10.625 473.643,45.178 485.369,64.074 493.186,74.4 552.138,110.893 
			569.803,140.927 624.33,143.832 630.807,141.404 637.936,145.905 650.798,152.204 696.99,123.615 717.109,133.24 718.5,135.103 
			732.683,127.863 781.742,97.321 793.182,103.979 794.733,114.904 805.827,110.705 869.539,69.546 869.58,92.982 870.975,100.504 
			879.109,97.601 948.639,47.665 948.639,87.974 1024.654,28.891 1024.706,69.95 1026.198,77.414 1033.085,74.554 1101.055,13.532 
			1101.104,67.57 1102.566,75.021 1110.283,71.409 1170.502,10.625 		"/>
		<g>
			<polygon fill="#EBCB11" points="562.843,36.025 559.774,23.599 533.144,8.625 698.072,8.625 647.464,41.175 641.895,43.121 
				617.721,47.132 			"/>
			<polygon fill="#EBCB11" points="564.481,34.316 617.757,45.099 641.397,41.176 646.581,39.365 691.266,10.625 672.744,10.625 
				651.908,10.625 561.617,10.625 540.781,10.625 561.509,22.28 			"/>
			<polygon fill="#EBCB11" points="791.244,389.994 788.907,349.701 777.883,355.184 738.529,380.735 729.127,389.994 
				714.698,389.994 714.852,381.054 714.743,353.375 698.817,341.21 687.622,347.875 645.97,371.205 636.139,368.6 636.139,360.014 
				636.036,349.729 614.26,332.287 611.453,332.937 576.85,327.437 576.311,326.943 559.498,306.959 559.681,288.392 
				553.233,273.51 549.08,271.578 539.777,264.873 539.653,264.806 495.821,239.123 488.171,233.995 483.674,210.216 
				469.275,186.411 455.647,176.357 442.593,167.345 407.446,147.107 404.623,123.079 399.207,109.896 358.571,84.676 
				342.646,70.196 330.654,62.818 328.308,52.996 316.837,23.399 299.112,8.625 331.293,8.625 338.692,22.281 408.25,69.837 
				408.817,88.941 413.501,100.693 486.702,145.385 487.511,169.938 491.243,178.611 563.3,221.132 563.961,250.817 
				569.625,259.544 625.973,262.219 640.037,257.795 640.363,287.504 646.831,292.686 664.14,283.912 718.788,252.302 
				719.089,292.943 720.113,299.686 795.041,254.925 795.481,302.214 796.482,310.392 871.449,266.532 871.889,329.971 
				873.05,336.872 950.167,289.599 950.661,369.443 951.225,377.317 1026.635,331.214 1026.647,389.994 			"/>
			<path fill="#EBCB11" d="M457.323,175.084l0.007,0.029l13.451,9.923l14.791,24.454l4.41,23.31h-0.001l6.904,4.628l43.779,25.652
				h0.001l0.041-0.004l9.391,6.769l4.671,2.173l6.918,15.969l-0.18,18.252l16.247,19.314v-0.002l0.005,0.005l33.625,5.345
				l3.371-0.78l23.273,18.641l0.115,11.533h-0.003v6.767l7.561,2.004l40.899-22.91v0.002l11.545-6.873l1.121-0.248l17.475,13.348
				l0.112,28.777l-0.002,0.002l-0.117,6.832h6.945h4.63l8.963-8.826l39.619-25.725l13.839-6.882l2.403,41.433h231.516l-0.012-53.214
				l-75.172,45.957l-0.803-11.217l-0.473-76.363l-76.619,46.968l-1.68-9.979l-0.416-60.141l-74.607,43.649l-1.384-11.31
				l-0.409-43.915l-74.489,44.499l-1.494-9.826l-0.276-37.348l-51.72,29.916l-18.508,9.381l-8.212-6.579l-0.308-27.961
				l-11.833,3.722l-57.728-2.74l-6.532-10.063l-0.649-29.141l-71.661-42.288l-4.14-9.62l-0.786-23.852l-72.849-44.477l-5.061-12.699
				l-0.547-18.44l-69.118-47.255l-7.062-13.034h-6.946h-18.521l13.879,11.569l11.707,30.206l2.185,9.149l11.455,7.047l0.04,0.039
				l15.879,14.438l41.03,25.464l5.767,14.036l2.738,23.303l34.361,19.785h-0.002L457.323,175.084z M450.545,170.302l6.778,4.782"/>
		</g>
		<g>
			<polygon fill-rule="evenodd" clip-rule="evenodd" fill="#EE0000" points="375.835,389.994 336.799,365.808 328.433,349.174 
				328.023,285.106 257.823,242.383 252.032,226.346 251.778,181.612 249.459,169.452 196.437,133.298 183.053,123.396 
				173.317,103.762 173.009,57.795 116.385,8.625 176.241,8.625 195.731,48.915 247.708,89.188 255.745,105.908 255.629,135.9 
				264.387,152.176 322.009,190.666 332.267,210.814 332.042,244.246 340.196,258.031 398.255,293.61 408.653,312.417 
				408.298,356.284 421.22,378.244 438.452,389.994 			"/>
			<polygon fill-rule="evenodd" clip-rule="evenodd" fill="#EE0000" points="406.294,356.821 406.649,312.926 396.76,295.04 
				338.727,259.477 330.039,244.787 330.264,211.288 320.464,192.039 262.862,153.562 253.627,136.4 253.743,106.36 246.11,90.479 
				194.135,50.208 174.987,10.625 142.575,10.625 121.738,10.625 175.002,56.878 175.314,103.287 184.63,122.075 197.564,131.646 
				251.269,168.265 253.777,181.417 254.03,225.99 259.465,241.041 330.016,283.978 330.43,348.693 338.333,364.404 
				376.405,387.994 390.296,387.994 431.969,387.994 419.724,379.645 			"/>
			<polygon fill-rule="evenodd" clip-rule="evenodd" fill="#EE0000" points="624.606,95.145 575.934,95.143 560.118,90.317 
				560.024,75.65 559.66,72.02 490.7,29.799 483.282,16.55 476.058,8.625 495.075,8.625 554.535,47.651 563.09,58.264 
				566.072,68.97 576.587,72.344 625.525,71.027 637.779,75.676 667.156,62.148 711.182,33.299 717.75,41.446 721.258,43.1 
				764.159,14.823 771.569,8.625 843.071,8.625 793.366,46.284 791.569,27.926 717.153,73.396 715.165,59.555 638.599,103.002 			
				"/>
			<polygon fill-rule="evenodd" clip-rule="evenodd" fill="#EE0000" points="816.284,10.625 772.296,10.625 765.354,16.431 
				721.421,45.388 716.481,43.06 710.762,35.965 668.128,63.902 637.854,77.843 625.185,73.037 576.3,74.353 564.435,70.545 
				561.274,59.198 553.175,49.15 494.478,10.625 480.587,10.625 484.915,15.373 492.189,28.366 561.551,70.832 562.024,75.544 
				562.109,88.833 576.232,93.143 625.13,93.145 638.594,100.705 716.897,56.272 717.142,59.248 718.701,70.106 793.046,24.681 
				793.046,24.681 793.046,24.683 793.476,26.867 795.009,42.53 837.12,10.625 			"/>
		</g>
		<g>
			<polygon fill-rule="evenodd" clip-rule="evenodd" fill="#187E30" points="1022.648,389.994 1022.637,338.347 947.703,384.157 
				946.661,369.601 946.211,296.716 870.089,343.379 867.891,330.319 867.497,273.479 793.25,316.917 791.483,302.476 
				791.105,261.935 717.054,306.172 715.091,293.261 714.839,259.208 665.998,287.455 646.341,297.418 636.385,289.441 
				636.096,263.228 626.494,266.248 567.387,263.442 559.987,252.042 559.351,223.446 488.085,181.392 483.538,170.825 
				482.777,147.674 410.278,103.412 404.84,89.766 404.312,71.99 335.636,25.037 326.744,8.625 370.181,8.625 389.455,24.607 
				408.777,37.387 408.159,43.027 408.867,50.013 408.568,60.689 414.961,66.166 482.266,104.474 487.543,126.108 487.853,134.177 
				488.354,134.451 563.346,179.194 563.989,206.378 567.013,208.857 570.541,210.525 631.71,210.585 639.66,208.036 
				640.352,229.594 647.499,235.208 718.788,194.415 719.065,223.462 720.285,231.751 794.989,185.651 795.555,219.006 
				796.057,227.119 804.118,224.035 871.431,183.285 871.897,228.183 872.553,235.479 889.688,225.886 950.155,187.837 
				950.582,245.708 955.466,249.5 1026.759,203.195 1027.07,274.502 1028.128,285.194 1100.153,234.213 1103.015,250.713 
				1103.381,329.977 1104.511,338.32 1153.394,305.458 1164.837,296.44 1181.763,284.604 1181.763,389.994 			"/>
			<polygon fill-rule="evenodd" clip-rule="evenodd" fill="#187E30" points="1166.03,298.047 1154.572,307.075 1102.96,341.772 
				1101.382,330.115 1101.016,250.89 1098.724,237.675 1026.477,288.813 1025.07,274.604 1024.774,206.868 955.362,251.952 
				948.589,246.693 948.182,191.441 890.708,227.606 870.837,238.732 869.898,228.283 869.467,186.812 805,225.839 794.229,229.96 
				793.555,219.04 793.049,189.199 718.749,235.05 717.066,223.618 716.82,197.845 647.323,237.613 638.383,230.591 637.746,210.75 
				632.021,212.586 570.091,212.524 565.936,210.56 562.012,207.343 561.373,180.345 487.395,136.206 485.897,135.387 
				485.553,126.387 480.527,105.786 413.806,67.81 406.542,61.587 406.864,50.086 406.148,43.019 406.656,38.382 388.261,26.216 
				369.459,10.625 334.732,10.625 330.102,10.625 337.164,23.659 406.281,70.914 406.829,89.354 411.89,102.053 484.74,146.529 
				485.524,170.381 489.664,180.001 561.325,222.289 561.974,251.43 568.506,261.493 626.233,264.233 638.066,260.512 
				638.374,288.473 646.586,295.052 665.094,285.671 716.813,255.755 717.09,293.103 718.584,302.929 793.073,258.43 
				793.482,302.345 794.866,313.654 869.474,270.005 869.89,330.146 871.569,340.125 948.188,293.157 948.661,369.522 
				948.661,369.522 949.464,380.737 1024.636,334.78 1024.647,387.994 1179.763,387.994 1179.763,288.443 			"/>
		</g>
		<g>
			<polygon fill-rule="evenodd" clip-rule="evenodd" fill="#84C2A0" points="100.304,334.13 100.798,249.743 88.393,229.231 
				42.563,194.122 20.187,175.341 20.187,389.994 163.088,389.994 112.848,356.608 			"/>
			<polygon fill-rule="evenodd" clip-rule="evenodd" fill="#84C2A0" points="1176.838,131.136 1166.751,138.074 1110.688,184.075 
				1104.499,187.353 1103.114,180.862 1102.972,125.406 1100.26,114.197 1090.636,120.237 1087.657,122.502 1083.334,126.597 
				1050.728,152.279 1032.257,165.316 1027.666,166.9 1026.705,162.979 1026.522,121.482 1023.326,107.281 1011.521,114.752 
				1004.99,120.312 1002.581,122.637 981.598,137.933 956.755,154.562 950.216,150.946 950.178,125.37 947.589,112.203 
				935.225,117.987 880.868,154.958 873.263,158.241 871.623,149.298 871.488,134.314 869.505,122.012 857.963,126.356 
				814.076,154.262 796.97,162.193 795.123,145.585 795.094,143.395 784.45,137.216 735.3,167.583 717.676,158.625 707.186,154.057 
				676.495,173.302 651.324,187.094 628.148,173.375 576.567,174.28 567.44,170.633 563.319,168.766 540.596,133.142 
				539.341,133.25 535.174,128.987 530.654,126.552 502.96,110.806 492.623,102.475 487.05,97.59 486.908,88.675 477.263,71.936 
				417.457,34.286 408.154,23.742 408.556,8.625 363.915,8.625 387.067,27.824 404.535,39.377 404.137,43.01 404.861,50.16 
				404.517,62.485 412.65,69.453 478.788,107.097 483.562,126.665 483.942,136.598 486.37,137.923 559.405,181.5 559.952,200.489 
				560.015,207.726 562.742,214.747 570.011,214.528 576.704,215.262 625.389,215.262 632.426,214.552 635.832,213.462 
				636.388,230.784 638.961,246.608 714.635,201.471 715.069,223.784 717.213,238.348 791.109,192.746 791.559,219.163 
				792.4,232.801 805.883,227.643 867.503,190.338 867.899,228.383 869.121,241.985 891.686,229.352 946.208,195.046 
				946.59,246.626 946.122,260.58 1022.79,210.553 1023.07,274.708 1024.825,292.433 1097.294,241.139 1099.017,251.066 
				1099.383,330.255 1101.409,345.226 1155.932,308.55 1167.218,299.657 1175.755,293.767 1181.763,289.472 1181.763,131.452 			"/>
		</g>
	</g>
	<polygon fill-rule="evenodd" clip-rule="evenodd" fill="#FEB911" points="559.611,389.994 559.73,351.556 551.951,338.834 
		516.165,319.962 474.52,245.812 433.923,221.478 396.712,156.671 347.784,125.977 328.269,89.497 319.096,70.685 259.022,25.665 
		250.458,8.625 305.359,8.625 320.192,20.989 332.136,51.803 334.16,60.279 345.069,66.991 360.991,81.47 402.415,107.179 
		408.532,122.067 411.185,144.644 444.743,163.968 459.095,173.877 459.11,173.941 472.288,183.663 487.47,208.764 491.79,231.605 
		497.948,235.733 541.117,261.027 541.223,261.017 541.875,261.454 551.111,268.111 556.299,270.524 563.689,287.581 
		563.512,305.518 578.808,323.699 611.311,328.864 615.246,327.953 640.021,347.796 640.129,365.52 645.422,366.922 
		697.418,337.396 699.74,336.882 718.739,351.394 718.732,389.994 	"/>
	<polygon fill-rule="evenodd" clip-rule="evenodd" fill="#FEB911" points="457.329,175.113 470.781,185.037 485.572,209.49 
		489.98,232.8 496.884,237.428 540.664,263.08 540.705,263.076 550.096,269.845 554.767,272.018 561.685,287.986 561.505,306.238 
		577.752,325.551 577.756,325.558 611.382,330.9 614.753,330.12 638.026,348.761 638.139,367.061 645.699,369.064 698.144,339.283 
		699.265,339.035 716.739,352.383 716.732,387.994 561.617,387.994 561.732,350.995 553.371,337.321 517.62,318.468 
		476.004,244.369 435.398,220.03 398.198,155.243 349.297,124.564 330.033,88.553 320.682,69.374 260.598,24.346 253.702,10.625 
		304.635,10.625 318.515,22.194 330.222,52.399 332.407,61.549 343.862,68.596 359.781,83.073 400.811,108.537 406.578,122.573 
		409.315,145.875 443.674,165.661 457.322,175.084 457.329,175.113 	"/>
	<polygon fill-rule="evenodd" clip-rule="evenodd" fill="#FEB911" points="723.426,389.994 736.396,377.222 775.898,351.702 
		792.55,343.422 795.251,389.994 	"/>
	<polygon fill-rule="evenodd" clip-rule="evenodd" fill="#FEB911" points="790.729,346.562 793.132,387.994 728.308,387.994 
		737.654,378.79 776.89,353.443 790.729,346.562 	"/>
	<polygon fill-rule="evenodd" clip-rule="evenodd" fill="#FE3400" points="431.352,389.994 418.227,381.045 404.29,357.358 
		404.645,313.435 395.265,296.47 337.258,260.922 328.035,245.328 328.26,211.761 318.918,193.412 261.336,154.949 251.625,136.901 
		251.741,106.812 244.512,91.771 192.539,51.502 171.797,8.625 227.17,8.625 255.628,67.072 262.504,79.944 302.324,107.516 
		340.896,178.372 375.343,199.364 419.761,279.961 479.617,316.864 487.256,331.103 487.198,374.011 492.641,389.994 	"/>
	<polygon fill-rule="evenodd" clip-rule="evenodd" fill="#FE3400" points="489.847,387.994 431.969,387.994 419.724,379.645 
		406.294,356.821 406.649,312.926 396.76,295.04 338.727,259.477 330.039,244.787 330.264,211.288 320.464,192.039 262.862,153.562 
		253.627,136.4 253.743,106.36 246.11,90.479 194.135,50.208 174.987,10.625 225.92,10.625 253.83,67.947 260.968,81.313 
		300.795,108.89 339.396,179.8 373.848,200.795 418.263,281.387 478.109,318.284 485.255,331.604 485.198,374.341 489.847,387.994 	
		"/>
	<polygon fill-rule="evenodd" clip-rule="evenodd" fill="#FE3400" points="624.844,75.046 576.013,76.361 562.803,72.118 
		559.457,60.13 551.815,50.65 487.786,8.625 520.729,8.625 525.516,13.068 565.789,47.717 568.896,49.999 626.445,52.826 
		635.61,50.412 651.005,49.765 705.115,16.599 716.307,15.773 725.073,17.973 739.285,8.625 777.804,8.625 766.55,18.038 
		721.584,47.676 715.213,44.673 710.342,38.631 669.1,65.659 637.929,80.011 	"/>
	<polygon fill-rule="evenodd" clip-rule="evenodd" fill="#FE3400" points="739.884,10.625 772.296,10.625 765.354,16.431 
		721.421,45.388 716.481,43.06 710.762,35.965 668.128,63.905 637.854,77.843 625.185,73.037 576.3,74.353 564.44,70.543 
		561.272,59.195 553.175,49.15 494.478,10.625 519.944,10.625 524.155,14.534 564.542,49.284 568.196,51.967 626.656,54.839 
		635.91,52.401 651.607,51.741 705.746,18.558 716.133,17.792 725.438,20.127 739.884,10.625 	"/>
</g>
</svg>
